# AST/ASF file generated using VICON BodyLanguage
# -----------------------------------------------
:version 1.10
:name VICON
:units
  mass 1.0
  length 0.45
  angle deg
:documentation
   .ast/.asf automatically generated from VICON data using
   VICON BodyBuilder and BodyLanguage model FoxedUp or BRILLIANT.MOD
:root
   order TX TY TZ RX RY RZ
   axis XYZ
   position 0 0 0  
   orientation 0 0 0 
:bonedata
  begin
     id 1 
     name lhipjoint
     direction 0.602128 -0.715006 0.355257 
     length 2.21237 
     axis 0 0 0  XYZ
  end
  begin
     id 2 
     name lfemur
     direction 0.34202 -0.939693 0  
     length 6.71649  
     axis 0 0 20  XYZ
    dof rx ry rz
    limits (-160.0 20.0)
           (-70.0 70.0)
           (-60.0 70.0)
  end
  begin
     id 3 
     name ltibia
     direction 0.34202 -0.939693 0   
     length 6.97123   
     axis 0 0 20   XYZ
    dof rx
    limits (-10.0 170.0)
  end
  begin
     id 4 
     name lfoot
     direction 0.0655697 -0.180151 0.981451   
     length 1.80924   
     axis -90 7.62852e-016 20   XYZ
    dof rx rz
    limits (-45.0 90.0)
           (-70.0 20.0)
  end
  begin
     id 5 
     name ltoes
     direction 1.53545e-011 -4.21827e-011 1   
     length 0.916331   
     axis -90 7.62852e-016 20   XYZ
    dof rx
    limits (-90.0 20.0)
  end
  begin
     id 6 
     name rhipjoint
     direction -0.625414 -0.698792 0.347201   
     length 2.2637  
     axis 0 0 0  XYZ 
  end
  begin
     id 7 
     name rfemur
     direction -0.34202 -0.939693 0   
     length 7.07595   
     axis 0 0 -20   XYZ
    dof rx ry rz
    limits (-160.0 20.0)
           (-70.0 70.0)
           (-70.0 60.0)
  end
  begin
     id 8 
     name rtibia
     direction -0.34202 -0.939693 0   
     length 7.22924   
     axis 0 0 -20   XYZ
    dof rx
    limits (-10.0 170.0)
 end
 begin
     id 9 
     name rfoot
     direction -0.0766747 -0.210662 0.974547   
     length 1.98482  
     axis -90 -7.62852e-016 -20   XYZ
    dof rx rz
    limits (-45.0 90.0)
           (-20.0 70.0)
  end
  begin
     id 10 
     name rtoes
     direction -1.53532e-011 -4.21867e-011 1   
     length 0.999842   
     axis -90 -7.62852e-016 -20   XYZ
    dof rx
    limits (-90.0 20.0)
  end
  begin
     id 11 
     name lowerback
     direction -0.0224668 0.997354 -0.0691422   
     length 2.09945   
     axis 0 0 0   XYZ
    dof rx ry rz
    limits (-20.0 45.0)
           (-30.0 30.0)
           (-30.0 30.0)
  end
  begin
     id 12 
     name upperback
     direction 0.0134698 0.998451 -0.0539888   
     length 2.09758   
     axis 0 0 0   XYZ
    dof rx ry rz
    limits (-20.0 45.0)
           (-30.0 30.0)
           (-30.0 30.0)
  end
  begin
     id 13 
     name thorax
     direction 0.0241905 0.99948 -0.0213333   
     length 2.10428   
     axis 0 0 0   XYZ
    dof rx ry rz
    limits (-20.0 45.0)
           (-30.0 30.0)
           (-30.0 30.0)
  end
  begin
     id 14 
     name lowerneck
     direction -0.00866847 0.995978 0.0891737   
     length 1.3959   
     axis 0 0 0   XYZ
    dof rx ry rz
    limits (-20.0 45.0)
           (-30.0 30.0)
           (-30.0 30.0)
  end
  begin
     id 15 
     name upperneck
     direction 0.0680679 0.992203 0.104404   
     length 1.39452   
     axis 0 0 0   XYZ
    dof rx ry rz
    limits (-20.0 45.0)
           (-30.0 30.0)
           (-30.0 30.0)
  end
  begin
     id 16
     name head
     direction 0.0242216 0.999358 0.0264054  
     length 1.40433  
     axis 0 0 0   XYZ
    dof rx ry rz
    limits (-20.0 45.0)
           (-30.0 30.0)
           (-30.0 30.0)
  end
  begin
     id 17 
     name lclavicle
     direction 0.929368 0.362991 -0.0671771  
     length 3.04887  
     axis 0 0 0   XYZ
    dof ry rz
    limits (-20.0 10.0)
           (0.0 20.0)
  end
  begin
     id 18 
     name lhumerus
     direction 1 -4.48967e-011 -7.13741e-028   
     length 4.77195   
     axis -180 -30 -90   XYZ
    dof rx ry rz
    limits (-60.0 90.0)
           (-90.0 90.0)
           (-90.0 90.0)
  end
  begin
     id 19
     name lradius
     direction 1 -4.48977e-011 3.60404e-027   
     length 2.98444   
     axis -180 -30 -90   XYZ
    dof rx
    limits (-10.0 170.0)
  end
  begin
     id 20
     name lwrist
     direction 1 -4.48997e-011 7.54877e-027   
     length 1.49222   
     axis -7.18178e-015 90 90   XYZ
    dof ry
    limits (-180.0 0.0)
 end
  begin
     id 21 
     name lhand
     direction 1 -4.489e-011 1.51105e-026   
     length 0.992285   
     axis -9.63605e-015 90 90   XYZ
    dof rx rz
    limits (-90.0 90.0)
           (-45.0 45.0)
  end
  begin
     id 22 
     name lfingers
     direction 1 -4.48998e-011 3.01948e-026   
     length 0.800006   
     axis -1.92718e-014 90 90   XYZ
    dof rx
    limits (0.0 90.0)
  end
  begin
     id 23
     name lthumb
     direction 0.707107 -6.34881e-011 0.707107   
     length 1.14865   
     axis -90 45 -3.53137e-014   XYZ
    dof rx rz
    limits (-45.0 45.0)
           (-45.0 45.0)
  end
  begin
     id 24 
     name rclavicle
     direction -0.945672 0.324529 0.0196374   
     length 3.4236  
     axis 0 0 0   XYZ 
    dof ry rz
    limits (-10.0 20.0)
           (-20.0 0.0)
  end
  begin
     id 25 
     name rhumerus
     direction -1 -4.4896e-011 1.02757e-029  
     length 4.62052   
     axis -180 30 90   XYZ
    dof rx ry rz
    limits (-90.0 60.0)
           (-90.0 90.0)
           (-90.0 90.0)
  end
  begin
     id 26 
     name rradius
     direction -1 -4.48982e-011 3.85962e-027   
     length 2.95332   
     axis -180 30 90   XYZ
    dof rx
    limits (-10.0 170.0)
  end
  begin
     id 27 
     name rwrist
     direction -1 -4.48961e-011 7.55118e-027   
     length 1.47666   
     axis -7.18178e-015 -90 -90   XYZ
    dof ry
    limits (-180.0 0.0)
  end
  begin
     id 28
     name rhand
     direction -1 -4.48984e-011 1.50994e-026   
     length 0.990956   
     axis -9.63605e-015 -90 -90   XYZ
    dof rx rz
    limits (-90.0 90.0)
           (-45.0 45.0)
  end
  begin
     id 29
     name rfingers
     direction -1 -4.4892e-011 3.02158e-026   
     length 0.798934   
     axis -1.92718e-014 -90 -90   XYZ
    dof rx
    limits (0.0 90.0)
  end
  begin
     id 30
     name rthumb
     direction -0.707107 -6.34916e-011 0.707107   
     length 1.14711   
     axis -90 -45 3.53137e-014   XYZ
    dof rx rz
    limits (-45.0 45.0)
           (-45.0 45.0)
  end
:hierarchy
  begin
    root lhipjoint rhipjoint lowerback
    lhipjoint lfemur
    lfemur ltibia
    ltibia lfoot
    lfoot ltoes
    rhipjoint rfemur
    rfemur rtibia
    rtibia rfoot
    rfoot rtoes
    lowerback upperback
    upperback thorax
    thorax lowerneck lclavicle rclavicle
    lowerneck upperneck
    upperneck head
    lclavicle lhumerus
    lhumerus lradius
    lradius lwrist
    lwrist lhand lthumb
    lhand lfingers
    rclavicle rhumerus
    rhumerus rradius
    rradius rwrist
    rwrist rhand rthumb
    rhand rfingers
  end

#!OML:ASF H:\ManfredObstacles\Project 1\Capture day 1\Session 1\Male.ASF
:FULLY-SPECIFIED
:DEGREES
216
root 11.7482 16.0377 14.9483 -171.176 -10.0221 -179.756
lowerback -12.2447 -4.56881 -3.35033
upperback 3.01934 -5.96386 3.18585
thorax 10.8759 -3.22281 4.03709
lowerneck -3.45147 -2.17237 -5.60009
upperneck 8.77974 -3.04783 8.7026
head 3.38747 -1.2244 3.4482
rclavicle 1.86858e-014 3.65764e-014
rhumerus -49.4785 -42.2796 -52.5551
rradius 17.9557
rwrist 48.3016
rhand -0.453991 -6.56141
rfingers 7.12502
rthumb 25.1555 -34.9239
lclavicle 1.86858e-014 3.65764e-014
lhumerus -19.9819 5.58148 90.5316
lradius 20.4272
lwrist -31.1512
lhand -8.31926 5.71434
lfingers 7.12502
lthumb 17.6016 34.9376
rfemur -34.1915 -3.69452 17.8111
rtibia 23.5292
rfoot -4.87461 6.05538
rtoes 32.624
lfemur 4.72967 -8.33007 -18.9995
ltibia 15.4361
lfoot -8.35369 -8.24179
ltoes -18.6982
217
root 11.7897 16.0618 14.7042 -171.165 -9.55372 -179.251
lowerback -11.5348 -4.30277 -2.35457
upperback 2.39247 -5.74731 3.12723
thorax 9.62282 -3.03548 3.5286
lowerneck -3.50377 -2.14542 -5.65231
upperneck 9.68661 -3.02227 8.8401
head 3.66864 -1.17265 3.50562
rclavicle 1.27222e-014 -3.65764e-014
rhumerus -51.0324 -42.5665 -51.1174
rradius 17.6953
rwrist 49.2572
rhand -0.27523 -6.65112
rfingers 7.12502
rthumb 25.3267 -34.9895
lclavicle 1.27222e-014 -3.65764e-014
lhumerus -21.5007 8.76066 89.1508
lradius 19.1075
lwrist -33.7271
lhand -8.36979 5.92969
lfingers 7.12502
lthumb 17.553 35.1573
rfemur -33.8941 -4.21909 19.0013
rtibia 24.1582
rfoot -4.52297 7.59426
rtoes 34.8189
lfemur 3.99704 -8.88111 -18.5723
ltibia 18.4658
lfoot -7.72543 -7.03268
ltoes -20.4167
218
root 11.8362 16.0897 14.4701 -171.21 -9.09482 -178.817
lowerback -11.5554 -4.16145 -1.85168
upperback 2.39539 -5.65244 3.23238
thorax 9.58846 -2.96884 3.37813
lowerneck -3.79999 -2.06424 -5.63064
upperneck 9.96801 -2.90824 8.73634
head 3.79279 -1.10907 3.47483
rclavicle 6.91771e-014 -2.62396e-014
rhumerus -51.0816 -43.2892 -50.5641
rradius 17.4499
rwrist 50.2758
rhand 0.0670356 -6.62527
rfingers 7.12502
rthumb 25.6546 -34.9168
lclavicle 6.91771e-014 -2.62396e-014
lhumerus -22.1811 12.8034 87.7122
lradius 17.9056
lwrist -36.7363
lhand -8.29485 6.18972
lfingers 7.12502
lthumb 17.6251 35.4109
rfemur -33.4135 -4.51139 20.0211
rtibia 24.6485
rfoot -4.42117 8.93961
rtoes 34.621
lfemur 2.98241 -9.28428 -18.2182
ltibia 22.0523
lfoot -6.59597 -5.69089
ltoes -19.5878
219
root 11.8906 16.1221 14.2389 -171.331 -8.85942 -178.457
lowerback -11.4998 -4.10689 -1.53654
upperback 2.42983 -5.64106 3.30159
thorax 9.56818 -2.95155 3.28054
lowerneck -3.90753 -1.9449 -5.36135
upperneck 10.0409 -2.74452 8.47283
head 3.81406 -1.02861 3.35585
rclavicle -8.38871e-014 5.28767e-014
rhumerus -50.6644 -43.5804 -50.8039
rradius 17.4162
rwrist 50.6311
rhand 0.380009 -6.39258
rfingers 7.12502
rthumb 25.9543 -34.6405
lclavicle -8.38871e-014 5.28767e-014
lhumerus -23.0222 16.6138 86.0515
lradius 16.9443
lwrist -39.4158
lhand -7.8877 6.4342
lfingers 7.12502
lthumb 18.0169 35.6197
rfemur -32.7281 -4.83265 20.9117
rtibia 25.0362
rfoot -4.54951 10.0182
rtoes 36.8637
lfemur 1.73891 -9.216 -17.8052
ltibia 26.0289
lfoot -4.94483 -4.38363
ltoes -18.2408
220
root 11.9496 16.1521 14.0095 -171.402 -8.79796 -178.217
lowerback -11.4907 -4.13061 -1.46103
upperback 2.43441 -5.69628 3.37615
thorax 9.57318 -2.9789 3.30704
lowerneck -3.79608 -1.80571 -5.27651
upperneck 9.99223 -2.5563 8.40437
head 3.76532 -0.938741 3.32982
rclavicle 6.35117e-014 -2.78299e-014
rhumerus -49.36 -42.7751 -52.4198
rradius 17.6994
rwrist 49.5502
rhand 0.588545 -6.1275
rfingers 7.12502
rthumb 26.154 -34.346
lclavicle 6.35117e-014 -2.78299e-014
lhumerus -23.9584 19.6587 84.4535
lradius 16.1612
lwrist -41.396
lhand -7.30555 6.69581
lfingers 7.12502
lthumb 18.5769 35.8288
rfemur -32.0125 -5.49644 21.7531
rtibia 25.2757
rfoot -4.66896 11.152
rtoes 37.1689
lfemur 0.0904401 -8.55172 -17.3637
ltibia 30.3162
lfoot -2.83588 -3.37294
ltoes -20.66
221
root 12.0082 16.1824 13.7857 -171.466 -8.84599 -178.005
lowerback -11.4367 -4.16036 -1.45887
upperback 2.39129 -5.7457 3.4495
thorax 9.50672 -3.00648 3.37878
lowerneck -3.56251 -1.75472 -5.25441
upperneck 9.99185 -2.48537 8.36162
head 3.7202 -0.907028 3.3176
rclavicle -6.69904e-014 1.11319e-014
rhumerus -47.4785 -40.7516 -55.2229
rradius 18.5508
rwrist 47.239
rhand 1.13619 -6.30553
rfingers 7.12502
rthumb 26.6782 -34.4453
lclavicle -6.69904e-014 1.11319e-014
lhumerus -24.9861 21.4639 83.1292
lradius 15.6691
lwrist -42.4599
lhand -6.55685 6.99415
lfingers 7.12502
lthumb 19.297 36.0567
rfemur -31.2632 -6.38928 22.603
rtibia 25.3648
rfoot -4.79432 12.2278
rtoes 36.8503
lfemur -1.95092 -7.58698 -16.8991
ltibia 34.808
lfoot 0.0597044 -1.97748
ltoes -20.572
